<svg
     width="84"
     height="160"
     version="1.1"
     id="right-diamond"
     sodipodi:docname="right-diamond.svg"
     inkscape:version="1.1.1 (3bf5ae0d25, 2021-09-20, custom)"
     xmlns:inkscape="http://www.inkscape.org/namespaces/inkscape"
     xmlns:sodipodi="http://sodipodi.sourceforge.net/DTD/sodipodi-0.dtd"
     xmlns="http://www.w3.org/2000/svg"
     xmlns:svg="http://www.w3.org/2000/svg">
    <defs
       id="defs10">
      <marker
         style="overflow:visible"
         id="Arrow2Sstart"
         refX="0"
         refY="0"
         orient="auto"
         inkscape:stockid="Arrow2Sstart"
         inkscape:isstock="true">
        <path
           transform="matrix(0.3,0,0,0.3,-0.69,0)"
           d="M 8.7185878,4.0337352 -2.2072895,0.01601326 8.7185884,-4.0017078 c -1.7454984,2.3720609 -1.7354408,5.6174519 -6e-7,8.035443 z"
           style="fill:context-stroke;fill-rule:evenodd;stroke:context-stroke;stroke-width:0.625;stroke-linejoin:round"
           id="path2114" />
      </marker>
      <marker
         style="overflow:visible"
         id="Arrow1Lend"
         refX="0"
         refY="0"
         orient="auto"
         inkscape:stockid="Arrow1Lend"
         inkscape:isstock="true">
        <path
           transform="matrix(-0.8,0,0,-0.8,-10,0)"
           style="fill:context-stroke;fill-rule:evenodd;stroke:context-stroke;stroke-width:1pt"
           d="M 0,0 5,-5 -12.5,0 5,5 Z"
           id="path2087" />
      </marker>
    </defs>
    <sodipodi:namedview
       id="namedview8"
       pagecolor="#ffffff"
       bordercolor="#666666"
       borderopacity="1.0"
       inkscape:pageshadow="2"
       inkscape:pageopacity="0.0"
       inkscape:pagecheckerboard="0"
       showgrid="false"
       inkscape:zoom="4.155"
       inkscape:cx="95.186522"
       inkscape:cy="74.969916"
       inkscape:window-width="1920"
       inkscape:window-height="1023"
       inkscape:window-x="0"
       inkscape:window-y="33"
       inkscape:window-maximized="1"
       inkscape:current-layer="svg6" />
    <path
       id="path5076"
       style="fill:#ffffff;fill-opacity:1;stroke:#ffffff;stroke-width:1;stroke-linecap:butt;stroke-linejoin:miter;stroke-miterlimit:4;stroke-dasharray:none;stroke-opacity:1"
       d="M 0,7.49414 4,20.091799 V 139.9082 l -4,12.59766 z m 4,12.597657 c 0.597078,1.595933 1.255578,3.187059 1.970703,4.771484 0.715125,1.584425 1.487095,3.162023 2.3125,4.728516 0.825405,1.566492 1.702942,3.121927 2.630859,4.664062 0.927918,1.542136 1.905071,3.070678 2.927735,4.582032 1.022664,1.511354 2.091528,3.00632 3.201172,4.480468 1.109644,1.474148 2.260361,2.928858 3.449219,4.359375 1.188857,1.430518 2.415477,2.836335 3.675781,4.216797 1.260303,1.380463 2.554923,2.734611 3.878906,4.058594 1.323983,1.323983 2.678131,2.618603 4.058594,3.878906 1.380462,1.260304 2.786279,2.486924 4.216797,3.675781 1.430517,1.188858 2.885227,2.339575 4.359375,3.449219 1.474148,1.109644 2.969114,2.178508 4.480468,3.201172 1.511354,1.022665 3.039896,1.999817 4.582032,2.927735 1.542135,0.927917 3.09757,1.805454 4.664062,2.630859 1.566493,0.825405 3.144091,1.597373 4.728516,2.312503 1.584425,0.71512 3.175551,1.37362 4.771484,1.9707 -1.595933,0.59708 -3.187059,1.25558 -4.771484,1.9707 -1.584425,0.71513 -3.162023,1.4871 -4.728516,2.3125 -1.566492,0.82541 -3.121927,1.70294 -4.664062,2.63086 -1.542136,0.92792 -3.070678,1.90507 -4.582032,2.92774 -1.511354,1.02266 -3.00632,2.09152 -4.480468,3.20117 -1.474148,1.10964 -2.928858,2.26036 -4.359375,3.44922 -1.430518,1.18885 -2.836335,2.41547 -4.216797,3.67578 -1.380463,1.2603 -2.734611,2.55492 -4.058594,3.87891 -1.323983,1.32398 -2.618603,2.67813 -3.878906,4.05859 -1.260304,1.38046 -2.486924,2.78628 -3.675781,4.2168 -1.188858,1.43051 -2.339575,2.88522 -3.449219,4.35937 -1.109644,1.47415 -2.178508,2.96912 -3.201172,4.48047 -1.022664,1.51135 -1.999817,3.03989 -2.927735,4.58203 -0.927917,1.54214 -1.805454,3.09757 -2.630859,4.66406 -0.825405,1.5665 -1.597375,3.14409 -2.3125,4.72852 C 5.255578,136.72114 4.597078,138.31227 4,139.9082 Z" />
    <path
       id="rect3970-3-6"
       style="fill:#000000;fill-opacity:1;stroke:#000000;stroke-width:0;stroke-linecap:round;stroke-linejoin:miter;stroke-miterlimit:4;stroke-dasharray:none;stroke-opacity:1;paint-order:normal"
       d="M 4,20.091799 V 0 H 0 V 7.49414 Z M 4,139.9082 V 160 H 0 v -7.49414 z M 84,80 C 49.000001,80 4,125 4,160 v -20.0918 c 0.597078,-1.59593 1.255578,-3.18706 1.970703,-4.77148 0.715125,-1.58443 1.487095,-3.16202 2.3125,-4.72852 0.825405,-1.56649 1.702942,-3.12192 2.630859,-4.66406 0.927918,-1.54214 1.905071,-3.07068 2.927735,-4.58203 1.022664,-1.51135 2.091528,-3.00632 3.201172,-4.48047 1.109644,-1.47415 2.260361,-2.92886 3.449219,-4.35937 1.188857,-1.43052 2.415477,-2.83634 3.675781,-4.2168 1.260303,-1.38046 2.554923,-2.73461 3.878906,-4.05859 1.323983,-1.32399 2.678131,-2.61861 4.058594,-3.87891 1.380462,-1.26031 2.786279,-2.48693 4.216797,-3.67578 1.430517,-1.18886 2.885227,-2.33958 4.359375,-3.44922 1.474148,-1.10965 2.969114,-2.17851 4.480468,-3.20117 1.511354,-1.02267 3.039896,-1.99982 4.582032,-2.92774 1.542135,-0.92792 3.09757,-1.80545 4.664062,-2.63086 1.566493,-0.8254 3.144091,-1.59737 4.728516,-2.3125 C 60.721144,81.25558 62.31227,80.59708 63.908203,80 62.31227,79.40292 60.721144,78.74442 59.136719,78.0293 57.552294,77.31417 55.974696,76.542202 54.408203,75.716797 52.841711,74.891392 51.286276,74.013855 49.744141,73.085938 48.202005,72.15802 46.673463,71.180868 45.162109,70.158203 43.650755,69.135539 42.155789,68.066675 40.681641,66.957031 39.207493,65.847387 37.752783,64.69667 36.322266,63.507812 34.891748,62.318955 33.485931,61.092335 32.105469,59.832031 30.725006,58.571728 29.370858,57.277108 28.046875,55.953125 26.722892,54.629142 25.428272,53.274994 24.167969,51.894531 22.907665,50.514069 21.681045,49.108252 20.492188,47.677734 19.30333,46.247217 18.152613,44.792507 17.042969,43.318359 15.933325,41.844211 14.864461,40.349245 13.841797,38.837891 12.819133,37.326537 11.84198,35.797995 10.914062,34.255859 9.986145,32.713724 9.108608,31.158289 8.283203,29.591797 7.457798,28.025304 6.685828,26.447706 5.970703,24.863281 5.255578,23.278856 4.597078,21.68773 4,20.091797 V 0 c 0,35 45.000001,80 80,80 z" />
  </svg>
